<svg xmlns="http://www.w3.org/2000/svg" viewBox="0 0 620.39 620.39"><defs><style>.cls-1{fill:#f2f2f2;}</style></defs><title>favicon</title><g id="Слой_2" data-name="Слой 2"><g id="Слой_1-2" data-name="Слой 1"><path d="M620.39,310.19c0,171.32-138.88,310.19-310.19,310.19A310.17,310.17,0,0,1,0,310.19C0,138.88,138.88,0,310.19,0S620.39,138.88,620.39,310.19Z"/><path class="cls-1" d="M491.76,387l.44.73S492,387.41,491.76,387Z"/><path class="cls-1" d="M549.69,170.36c2.67-4.33,9.33-10.67,9-15.33s-8.21-15-9.61-15-5.39-19.33-8.39-22.67c-.2-.22-1.46-1.51-3.7-3.64h0C481.22,48.19,399.27,3.83,306.46,3.83c-168,0-304.1,136.15-304.1,304.1,0,77.8,24.84,142.61,68.49,197.63l1.44,1.83.21.27h0c13,16.16,26.5,26.28,38.85,28,0,0,9.33-28-5.17-40s12-20,12-20l-16-57.5s13-33,22.5-32.5,41.5-51,37.5-62-2.5,8.5-29,2.5-42-109.5-31-116,25.5,103.5,25.5,103.5,90.5-22.5,91.5-53.5l-19-23.28s-17,20.78-23,9.78-16-32.5-8.5-39,12,22,19,22,56.5,24.05,72,9.28,36.5,74.72,60,112.72,23.5-46,23.5-46,27.5-26,43-36.5,26-23.5,49.5,34,5.5-8.5,5.5-8.5,27,87.5,36.5,85.5c7.88-1.66,12.66,4.59,14.06,6.77-4.34-7.27-39.36-66.73-28.56-75.46,11.5-9.31,25.5,27.19,25.5,27.19s41.5-29-4.5-61.5,18-24.5,18-24.5-9,15.43-2.5,20.72,14-12.22,14-12.22l-3-8.5s46.41-26.08-11-102.5c-26.17-34.83,38.33,12,39.33,17.67S554,184,554,184,547,174.69,549.69,170.36Z"/></g></g></svg>